<svg width="363" height="302" viewBox="0 0 363 302" fill="none" xmlns="http://www.w3.org/2000/svg">
<g clip-path="url(#clip0_5598_59501)">
<path d="M61.1 151.1C61.1 101.8 84.7 58.0996 121.3 30.5996C121 30.5996 120.8 30.5996 120.5 30.5996C53.9 30.5996 0 84.5996 0 151.1C0 217.7 54 271.6 120.5 271.6C120.8 271.6 121 271.6 121.3 271.6C84.8 244.1 61.1 200.3 61.1 151.1Z" fill="#FFAFAF"/>
<path d="M211.8 0.400391C177.9 0.400391 146.5 11.6004 121.4 30.6004C166.4 30.9004 205.4 55.8004 225.9 92.5004C252.4 98.8004 272.1 122.6 272.1 151C272.1 179.4 252.4 203.2 225.9 209.5C205.4 246.2 166.4 271.1 121.4 271.4C146.6 290.3 177.9 301.6 211.8 301.6C295 301.6 362.4 234.2 362.4 151C362.4 67.8004 294.9 0.400391 211.8 0.400391Z" fill="#3F5290"/>
<path d="M225.8 209.6C221.3 210.7 216.6 211.3 211.7 211.3C178.4 211.3 151.4 184.3 151.4 151C151.4 117.7 178.4 90.7 211.7 90.7C216.5 90.7 221.2 91.3 225.8 92.4C205.3 55.7 166.3 30.8 121.3 30.5C84.7001 58 61.1001 101.7 61.1001 151C61.1001 200.3 84.7001 244 121.3 271.5C166.3 271.2 205.3 246.3 225.8 209.6Z" fill="#EB5757"/>
<path d="M225.8 209.6C252.3 203.3 272 179.5 272 151.1C272 122.7 252.3 98.8996 225.8 92.5996C235.5 109.9 241 129.9 241 151.1C241 172.3 235.5 192.3 225.8 209.6Z" fill="#F3B993"/>
<path d="M151.5 151.101C151.5 184.401 178.5 211.401 211.8 211.401C216.6 211.401 221.3 210.801 225.9 209.701C235.6 192.401 241.1 172.401 241.1 151.201C241.1 130.001 235.5 110.001 225.9 92.7011C221.4 91.6011 216.7 91.0011 211.8 91.0011C178.5 90.8011 151.5 117.801 151.5 151.101Z" fill="white"/>
</g>
<defs>
<clipPath id="clip0_5598_59501">
<rect width="363" height="302" fill="white"/>
</clipPath>
</defs>
</svg>
