<?xml version="1.0" encoding="utf-8"?>
<!-- Generator: Adobe Illustrator 26.0.1, SVG Export Plug-In . SVG Version: 6.00 Build 0)  -->
<svg version="1.1" id="Camada_1" xmlns="http://www.w3.org/2000/svg" xmlns:xlink="http://www.w3.org/1999/xlink" x="0px" y="0px"
	 viewBox="0 0 1000 540" style="enable-background:new 0 0 1000 540;" xml:space="preserve">
<style type="text/css">
	.st0{fill:#2E3A67;}
	.st1{fill:#FFAFAF;}
	.st2{fill:#3F5290;}
	.st3{fill:#EB5757;}
	.st4{fill:#F3B993;}
	.st5{fill:#FFFFFF;}
</style>
<g id="Camada_1_00000013874503764478519580000006279552869444765609_">
	<g>
		<g>
			<path class="st0" d="M533.9,363.1v-6.2l5.7-1.7c3.6-1.1,6-3,7.4-5.5c1.3-2.5,2-5.9,2-10.1V199.3c0-3.8-0.5-6.8-1.4-9.2
				s-3.3-4.2-7.1-5.5L534,182v-6.2h54.1l53.3,138.5l50.1-138.5h55.2v6.2l-4.5,1.4c-3.6,1.1-6,2.9-7.4,5.2c-1.3,2.4-2,5.4-2,9.2
				c-0.2,11-0.3,21.9-0.3,32.7c0,10.9,0,21.9,0,33v11.6c0,11,0,21.9,0,32.9s0.1,21.8,0.3,32.6c0,4,0.5,7,1.4,9.1s3.2,3.8,6.8,5.1
				l5.7,2v6.2h-68.8v-6.2l6.2-2c3.6-1.3,5.8-3.1,6.7-5.2c0.8-2.2,1.3-5.1,1.3-8.9v-61.5l0.6-75.9l-57.8,159.8H619L558.1,205
				l1.1,64.6v70.2c0,4.2,0.6,7.5,1.7,9.9c1.1,2.5,3.5,4.2,7.1,5.1l5.7,2v6.2L533.9,363.1L533.9,363.1z"/>
			<path class="st0" d="M822.8,222.9c11.9,0,22.1,2.5,30.6,7.4s15.1,11.7,19.7,20.3c4.6,8.6,6.9,18.5,6.9,29.6
				c0,2.5-0.1,4.8-0.3,6.9c-0.2,2.2-0.6,4.2-1.1,6.1h-85.3c0.2,19.5,3.8,33.4,10.9,41.9s17.4,12.7,31,12.7c9.4,0,17.1-1.6,22.9-4.7
				c5.9-3.1,11.2-7.5,16.1-13.2l4.5,4.2c-5.7,10.4-13.4,18.5-23.1,24.2c-9.7,5.8-21.3,8.6-34.7,8.6c-13.4,0-25.2-2.8-35.4-8.5
				c-10.2-5.7-18.2-13.8-23.9-24.5c-5.8-10.7-8.6-23.5-8.6-38.4c0-15.5,3.4-28.6,10.1-39.4c6.7-10.8,15.4-19,26.1-24.8
				C799.9,225.7,811.1,222.9,822.8,222.9z M821.4,231.1c-5.5,0-10.2,1.6-14.3,4.7c-4.1,3.1-7.3,8.6-9.6,16.4
				c-2.4,7.8-3.7,18.8-4.1,33h50.7c2.1-19.1,1.3-32.9-2.3-41.4C838.2,235.3,831.4,231.1,821.4,231.1z"/>
		</g>
		<g>
			<path class="st1" d="M181.1,270.1c0-49.3,23.6-93,60.2-120.5c-0.3,0-0.5,0-0.8,0c-66.6,0-120.5,54-120.5,120.5
				c0,66.6,54,120.5,120.5,120.5c0.3,0,0.5,0,0.8,0C204.8,363.1,181.1,319.3,181.1,270.1z"/>
			<path class="st2" d="M331.8,119.4c-33.9,0-65.3,11.2-90.4,30.2c45,0.3,84,25.2,104.5,61.9c26.5,6.3,46.2,30.1,46.2,58.5
				s-19.7,52.2-46.2,58.5c-20.5,36.7-59.5,61.6-104.5,61.9c25.2,18.9,56.5,30.2,90.4,30.2c83.2,0,150.6-67.4,150.6-150.6
				S414.9,119.4,331.8,119.4z"/>
			<path class="st3" d="M345.8,328.6c-4.5,1.1-9.2,1.7-14.1,1.7c-33.3,0-60.3-27-60.3-60.3s27-60.3,60.3-60.3
				c4.8,0,9.5,0.6,14.1,1.7c-20.5-36.7-59.5-61.6-104.5-61.9c-36.6,27.5-60.2,71.2-60.2,120.5s23.6,93,60.2,120.5
				C286.3,390.2,325.3,365.3,345.8,328.6z"/>
			<path class="st4" d="M345.8,328.6c26.5-6.3,46.2-30.1,46.2-58.5s-19.7-52.2-46.2-58.5c9.7,17.3,15.2,37.3,15.2,58.5
				S355.5,311.3,345.8,328.6z"/>
			<path class="st5" d="M271.5,270.1c0,33.3,27,60.3,60.3,60.3c4.8,0,9.5-0.6,14.1-1.7c9.7-17.3,15.2-37.3,15.2-58.5
				s-5.6-41.2-15.2-58.5c-4.5-1.1-9.2-1.7-14.1-1.7C298.5,209.8,271.5,236.8,271.5,270.1z"/>
		</g>
	</g>
</g>
<g id="Camada_3">
</g>
</svg>
