<svg width="80" height="80" viewBox="0 0 80 80" fill="none" xmlns="http://www.w3.org/2000/svg">
<g clip-path="url(#clip0_5631_63477)">
<path d="M59.8938 26.6138H56.5681V19.9622C56.5681 10.7831 49.1183 3.33337 39.9392 3.33337C30.7601 3.33337 23.3103 10.7831 23.3103 19.9622V26.6138H19.9846C16.3262 26.6138 13.333 29.607 13.333 33.2653V66.5231C13.333 70.1814 16.3262 73.1746 19.9846 73.1746H59.8938C63.5522 73.1746 66.5454 70.1814 66.5454 66.5231V33.2653C66.5454 29.607 63.5522 26.6138 59.8938 26.6138ZM29.9619 19.9622C29.9619 14.4415 34.4184 9.98492 39.9392 9.98492C45.46 9.98492 49.9165 14.4415 49.9165 19.9622V26.6138H29.9619V19.9622ZM59.8938 66.5231H19.9846V33.2653H59.8938V66.5231ZM39.9392 56.5458C43.5976 56.5458 46.5907 53.5526 46.5907 49.8942C46.5907 46.2359 43.5976 43.2427 39.9392 43.2427C36.2808 43.2427 33.2877 46.2359 33.2877 49.8942C33.2877 53.5526 36.2808 56.5458 39.9392 56.5458Z" fill="#50555C"/>
</g>
<defs>
<clipPath id="clip0_5631_63477">
<rect width="80" height="80" fill="white"/>
</clipPath>
</defs>
</svg>
