<svg width="80" height="80" viewBox="0 0 80 80" fill="none" xmlns="http://www.w3.org/2000/svg">
<g clip-path="url(#clip0_5631_63483)">
<path d="M80 49.9999C80 41.1999 73.1667 34.0666 64.5 33.4666C62.2333 21.9666 52.1333 13.3332 40 13.3332C35.5667 13.3332 31.4333 14.5332 27.8333 16.5666L32.8 21.5332C35.0333 20.5666 37.4333 19.9999 40 19.9999C50.1333 19.9999 58.3333 28.1999 58.3333 38.3332V39.9999H63.3333C68.8667 39.9999 73.3333 44.4666 73.3333 49.9999C73.3333 53.2999 71.7333 56.1666 69.3 57.9999L74 62.6999C77.6333 59.6332 80 55.1332 80 49.9999ZM14.7 12.8666L10 17.5666L19.2333 26.7999H17.8333C7.8 27.8666 0 36.3666 0 46.6666C0 57.6999 8.96667 66.6666 20 66.6666H59.1L65.7667 73.3332L70.4667 68.6332L14.7 12.8666ZM20 59.9999C12.6333 59.9999 6.66667 54.0332 6.66667 46.6666C6.66667 39.2999 12.6333 33.3332 20 33.3332H25.7667L52.4333 59.9999H20Z" fill="#50555C"/>
<rect x="14.0811" y="11.9286" width="80.0842" height="6.96074" transform="rotate(44.965 14.0811 11.9286)" fill="#EB5757"/>
</g>
<defs>
<clipPath id="clip0_5631_63483">
<rect width="80" height="80" fill="white"/>
</clipPath>
</defs>
</svg>
