<svg width="80" height="80" viewBox="0 0 80 80" fill="none" xmlns="http://www.w3.org/2000/svg">
<g clip-path="url(#clip0_5631_63488)">
<path d="M43.3337 16.9334C53.5337 18.4 61.6003 26.4667 63.067 36.6667H73.167C71.6003 20.9334 59.067 8.40004 43.3337 6.83337V16.9334ZM63.067 43.3334C61.6003 53.5334 53.5337 61.6 43.3337 63.0667V73.1667C59.067 71.6 71.6003 59.0667 73.167 43.3334H63.067ZM36.667 63.0667C25.367 61.4334 16.667 51.7334 16.667 40C16.667 28.2667 25.367 18.5667 36.667 16.9334V6.83337C19.8337 8.50004 6.66699 22.7 6.66699 40C6.66699 57.3 19.8337 71.5 36.667 73.1667V63.0667Z" fill="#50555C"/>
<rect x="17.2695" y="6.90906" width="78.8123" height="6.96074" transform="rotate(44.8071 17.2695 6.90906)" fill="#EB5757"/>
</g>
<defs>
<clipPath id="clip0_5631_63488">
<rect width="80" height="80" fill="white"/>
</clipPath>
</defs>
</svg>
